<?xml version="1.0" encoding="UTF-8"?>
<svg width="124px" height="142px" viewBox="0 0 124 142" version="1.1" xmlns="http://www.w3.org/2000/svg" xmlns:xlink="http://www.w3.org/1999/xlink">
    <!-- Generator: Sketch 57.1 (83088) - https://sketch.com -->
    <title>Combined Shape</title>
    <desc>Created with Sketch.</desc>
    <g id="Home" stroke="none" stroke-width="1" fill="none" fill-rule="evenodd">
        <g id="white" transform="translate(-743.000000, -2303.000000)" fill="#59C3C3" fill-rule="nonzero">
            <path d="M850.44413,2317.28494 C860.964586,2327.20432 867,2341.19992 867,2355.67863 C867,2373.38031 858.204903,2389.79704 843.475819,2399.59788 C840.284941,2401.71799 837.711019,2404.57684 835.883783,2407.89941 L835.639255,2408.35534 L841.890896,2408.35534 L841.890896,2412.93592 L833.838105,2412.93592 C833.458732,2414.23246 833.164693,2415.56239 832.988843,2416.9287 L832.920811,2417.5165 L837.325604,2417.5165 L837.325604,2422.09709 L832.760312,2422.09709 L832.760312,2428.96796 C832.760312,2430.18221 831.821646,2431.17256 830.63394,2431.25298 L830.477666,2431.25825 L828.195021,2431.25825 C828.195021,2438.83701 822.052608,2445 814.499145,2445 C807.049155,2445 800.97182,2439.00471 800.806716,2431.5689 L800.80327,2431.25825 L798.520624,2431.25825 C797.313635,2431.25825 796.323654,2430.3185 796.243251,2429.12501 L796.237979,2428.96796 L796.237979,2422.09709 L791.672687,2422.09709 L791.672687,2417.5165 L796.057418,2417.5165 C795.900402,2416.13777 795.609412,2414.80099 795.242687,2413.49418 L795.081052,2412.93592 L787.107395,2412.93592 L787.107395,2408.35534 L793.259839,2408.35534 C791.394044,2404.79912 788.716839,2401.7372 785.364203,2399.48829 C770.338619,2389.41554 761.636476,2372.65306 762.011654,2354.56222 L762.026155,2354.00229 L766.589218,2354.14432 C766.070941,2370.85964 774.036796,2386.38509 787.899857,2395.68157 C792.397699,2398.69559 795.843365,2402.94544 798.048968,2407.86153 L798.265387,2408.35534 L830.638165,2408.35534 C832.801552,2403.26704 836.312457,2398.86427 840.952425,2395.77775 C854.404209,2386.83353 862.434708,2371.84375 862.434708,2355.67863 C862.434708,2342.26455 857.065809,2329.81221 847.318867,2320.62197 C837.726267,2311.58082 825.217284,2306.98582 812.047424,2307.64399 L811.429611,2307.67869 L811.146509,2303.10817 C825.807605,2302.18221 839.777665,2307.22578 850.44413,2317.28494 Z M823.629729,2431.25825 L805.368562,2431.25825 C805.368562,2436.31076 809.463504,2440.41942 814.499145,2440.41942 C819.534787,2440.41942 823.629729,2436.31076 823.629729,2431.25825 Z M828.195021,2422.09709 L800.80327,2422.09709 L800.80327,2426.67767 L828.195021,2426.67767 L828.195021,2422.09709 Z M829.067731,2412.93592 L799.846967,2412.93592 C800.167964,2414.21271 800.394791,2415.52071 800.549206,2416.85008 L800.62048,2417.5165 L828.357748,2417.5165 C828.493726,2415.96206 828.70438,2414.42327 829.067731,2412.93592 Z M802.888889,2315 C807.825635,2315 811.856335,2318.94516 811.996244,2323.84758 L812,2324.11111 L812,2387.88889 C812,2392.91379 807.913791,2397 802.888889,2397 C799.283149,2397 796.187907,2394.87793 794.712023,2391.83162 C793.709934,2392.20977 792.63444,2392.44444 791.5,2392.44444 C786.475098,2392.44444 782.388889,2388.35824 782.388889,2383.33333 C782.388889,2382.2634 782.607992,2381.24908 782.949436,2380.29481 C778.6419,2378.66878 775.555556,2374.53697 775.555556,2369.66667 C775.555556,2367.79262 776.054932,2366.04758 776.861274,2364.48494 C773.444607,2363.17033 771,2359.87712 771,2356 C771,2352.124 773.444607,2348.82967 776.861274,2347.51617 C776.054932,2345.95353 775.555556,2344.2085 775.555556,2342.33333 C775.555556,2337.46414 778.6419,2333.33233 782.949436,2331.70519 C782.607992,2330.75092 782.388889,2329.73771 782.388889,2328.66667 C782.388889,2323.64288 786.475098,2319.55556 791.5,2319.55556 C792.63444,2319.55556 793.709934,2319.79023 794.712023,2320.16838 C796.187907,2317.12318 799.283149,2315 802.888889,2315 Z M825.111111,2315 C828.716851,2315 831.812093,2317.12318 833.28909,2320.16838 C834.291179,2319.79023 835.36556,2319.55556 836.5,2319.55556 C841.524902,2319.55556 845.611111,2323.64288 845.611111,2328.66667 C845.611111,2329.73771 845.393121,2330.75092 845.050564,2331.70519 C849.3581,2333.33233 852.444444,2337.46414 852.444444,2342.33333 C852.444444,2344.2085 851.946181,2345.95353 851.139838,2347.51617 C854.556505,2348.82967 857,2352.124 857,2356 C857,2359.87712 854.556505,2363.17033 851.139838,2364.48494 C851.946181,2366.04758 852.444444,2367.79262 852.444444,2369.66667 C852.444444,2374.53697 849.3581,2378.66878 845.050564,2380.29481 C845.393121,2381.24908 845.611111,2382.2634 845.611111,2383.33333 C845.611111,2388.35824 841.524902,2392.44444 836.5,2392.44444 C835.36556,2392.44444 834.291179,2392.20977 833.28909,2391.83162 C831.812093,2394.87793 828.716851,2397 825.111111,2397 C820.174365,2397 816.143665,2393.05591 816.003756,2388.15247 L816,2387.88889 L816,2324.11111 C816,2319.08732 820.086209,2315 825.111111,2315 Z M825.111111,2319.55556 C822.670444,2319.55556 820.672688,2321.48358 820.560522,2323.89694 L820.555556,2324.11111 L820.555556,2387.88889 C820.555556,2390.40134 822.59866,2392.44444 825.111111,2392.44444 C827.208713,2392.44444 828.960422,2391.01194 829.488715,2389.08005 C828.265417,2387.59123 827.475338,2385.73108 827.395561,2383.67738 L827.388889,2383.33333 L831.944444,2383.33333 C831.944444,2385.84578 833.987549,2387.88889 836.5,2387.88889 C839.012451,2387.88889 841.055556,2385.84578 841.055556,2383.33333 C841.055556,2380.89267 839.127532,2378.89491 836.714167,2378.78274 L836.5,2378.77778 L836.5,2374.22222 C838.718831,2374.22222 840.727458,2375.05192 842.309001,2376.37321 C845.47876,2375.78263 847.888889,2373.00659 847.888889,2369.66667 C847.888889,2365.89966 844.823676,2362.83333 841.055556,2362.83333 C837.367027,2362.83333 834.35029,2365.77323 834.226193,2369.43216 L834.222222,2369.66667 L829.666667,2369.66667 C829.666667,2363.38721 834.776096,2358.27778 841.055556,2358.27778 C843.500497,2358.27778 845.744686,2359.08179 847.599317,2360.40278 L847.888889,2360.61561 L847.888889,2360.55556 C850.40134,2360.55556 852.444444,2358.51245 852.444444,2356 C852.444444,2353.55933 850.516421,2351.56158 848.103056,2351.44941 L847.888889,2351.44444 L847.888889,2351.3855 C845.98036,2352.83247 843.629178,2353.72222 841.055556,2353.72222 C834.874213,2353.72222 829.826622,2348.77229 829.670394,2342.62686 L829.666667,2342.33333 L834.222222,2342.33333 C834.222222,2346.10145 837.288547,2349.16667 841.055556,2349.16667 C844.823676,2349.16667 847.888889,2346.10145 847.888889,2342.33333 C847.888889,2338.99452 845.47876,2336.21848 842.309001,2335.6279 C840.810697,2336.87965 838.929083,2337.68919 836.848563,2337.77094 L836.5,2337.77778 L836.5,2333.22222 C839.012451,2333.22222 841.055556,2331.17912 841.055556,2328.66667 C841.055556,2326.15422 839.012451,2324.11111 836.5,2324.11111 C834.059333,2324.11111 832.061576,2326.03913 831.949411,2328.4525 L831.944444,2328.66667 L827.388889,2328.66667 C827.388889,2326.47786 828.197456,2324.49148 829.488715,2322.91995 C828.960422,2320.98918 827.208713,2319.55556 825.111111,2319.55556 Z M802.888889,2319.55556 C800.791287,2319.55556 799.039578,2320.98918 798.511285,2322.91995 C799.734583,2324.40877 800.524662,2326.26992 800.604439,2328.32278 L800.611111,2328.66667 L796.055556,2328.66667 C796.055556,2326.15422 794.012451,2324.11111 791.5,2324.11111 C788.987549,2324.11111 786.944444,2326.15422 786.944444,2328.66667 C786.944444,2331.10733 788.872468,2333.10509 791.285833,2333.21726 L791.5,2333.22222 L791.5,2337.77778 C789.281169,2337.77778 787.272542,2336.94919 785.692112,2335.6279 C782.52124,2336.21848 780.111111,2338.99452 780.111111,2342.33333 C780.111111,2346.10145 783.177436,2349.16667 786.944444,2349.16667 C790.634063,2349.16667 793.649756,2346.22784 793.773808,2342.5679 L793.777778,2342.33333 L798.333333,2342.33333 C798.333333,2348.61391 793.225016,2353.72222 786.944444,2353.72222 C784.499504,2353.72222 782.255314,2352.91922 780.400683,2351.59832 L780.111111,2351.3855 L780.111111,2351.44444 C777.59866,2351.44444 775.555556,2353.48755 775.555556,2356 C775.555556,2358.44067 777.483579,2360.43842 779.896944,2360.55059 L780.111111,2360.55556 L780.111111,2360.61561 C782.01964,2359.16865 784.370823,2358.27778 786.944444,2358.27778 C793.126882,2358.27778 798.173412,2363.22878 798.329607,2369.37319 L798.333333,2369.66667 L793.777778,2369.66667 C793.777778,2365.89966 790.712565,2362.83333 786.944444,2362.83333 C783.177436,2362.83333 780.111111,2365.89966 780.111111,2369.66667 C780.111111,2373.00659 782.52124,2375.78263 785.692112,2376.37321 C787.189362,2375.12146 789.070921,2374.31092 791.151437,2374.22907 L791.5,2374.22222 L791.5,2378.77778 C788.987549,2378.77778 786.944444,2380.82088 786.944444,2383.33333 C786.944444,2385.84578 788.987549,2387.88889 791.5,2387.88889 C793.940667,2387.88889 795.938424,2385.96087 796.050589,2383.5475 L796.055556,2383.33333 L800.611111,2383.33333 C800.611111,2385.52325 799.802544,2387.50852 798.511285,2389.08005 C799.039578,2391.01194 800.791287,2392.44444 802.888889,2392.44444 C805.329556,2392.44444 807.327312,2390.51642 807.439478,2388.10306 L807.444444,2387.88889 L807.444444,2324.11111 C807.444444,2321.59866 805.40134,2319.55556 802.888889,2319.55556 Z M756.5,2326 C757.742554,2326 758.75,2327.00635 758.75,2328.25 C758.75,2333.21362 762.786377,2337.25 767.75,2337.25 C768.992554,2337.25 770,2338.25635 770,2339.5 C770,2340.74475 768.992554,2341.75 767.75,2341.75 C762.786377,2341.75 758.75,2345.78748 758.75,2350.75 C758.75,2351.99475 757.742554,2353 756.5,2353 C755.258545,2353 754.25,2351.99475 754.25,2350.75 C754.25,2345.78748 750.213623,2341.75 745.25,2341.75 C744.008545,2341.75 743,2340.74475 743,2339.5 C743,2338.25635 744.008545,2337.25 745.25,2337.25 C750.213623,2337.25 754.25,2333.21362 754.25,2328.25 C754.25,2327.00635 755.258545,2326 756.5,2326 Z M756.5,2335.70422 C755.499145,2337.20715 754.207153,2338.50134 752.704223,2339.5 C754.207153,2340.49976 755.501343,2341.79285 756.5,2343.29578 C757.499756,2341.79285 758.792847,2340.49976 760.295776,2339.5 C758.792847,2338.49915 757.499756,2337.20715 756.5,2335.70422 Z M770.5,2303 C771.742554,2303 772.75,2304.00635 772.75,2305.25 C772.75,2310.21362 776.786377,2314.25 781.75,2314.25 C782.992554,2314.25 784,2315.25635 784,2316.5 C784,2317.74475 782.992554,2318.75 781.75,2318.75 C776.786377,2318.75 772.75,2322.78748 772.75,2327.75 C772.75,2328.99475 771.742554,2330 770.5,2330 C769.258545,2330 768.25,2328.99475 768.25,2327.75 C768.25,2322.78748 764.213623,2318.75 759.25,2318.75 C758.008545,2318.75 757,2317.74475 757,2316.5 C757,2315.25635 758.008545,2314.25 759.25,2314.25 C764.213623,2314.25 768.25,2310.21362 768.25,2305.25 C768.25,2304.00635 769.258545,2303 770.5,2303 Z M770.5,2312.70422 C769.501343,2314.20715 768.207153,2315.50134 766.704224,2316.5 C768.207153,2317.49976 769.501343,2318.79285 770.5,2320.29578 C771.499756,2318.79285 772.792847,2317.49976 774.295776,2316.5 C772.792847,2315.50134 771.499756,2314.20715 770.5,2312.70422 Z" id="Combined-Shape"></path>
        </g>
    </g>
</svg>