<?xml version="1.0" encoding="UTF-8"?>
<svg width="468px" height="295px" viewBox="0 0 468 295" version="1.1" xmlns="http://www.w3.org/2000/svg" xmlns:xlink="http://www.w3.org/1999/xlink">
    <!-- Generator: Sketch 57.1 (83088) - https://sketch.com -->
    <title>Group 4</title>
    <desc>Created with Sketch.</desc>
    <g id="Home" stroke="none" stroke-width="1" fill="none" fill-rule="evenodd">
        <g id="white" transform="translate(-512.000000, -138.000000)" fill-rule="nonzero">
            <g id="Group-4" transform="translate(512.000000, 138.000000)">
                <g id="027-diverso" transform="translate(303.000000, 0.000000)">
                    <path d="M110.49272,148 C107.634731,147.995759 104.78616,147.672262 102,147.035527 C110.296133,140.377159 118.19512,133.238549 125.656377,125.656377 C133.238549,118.19512 140.377159,110.296133 147.035527,102 C147.672262,104.78616 147.995759,107.634731 148,110.49272 C148,131.207419 131.207419,148 110.49272,148 L110.49272,148 Z" id="Path" fill="#BDDBFF"></path>
                    <path d="M72,109 C76.3537588,108.229021 80.570108,106.820542 84.5131195,104.819971 C93.2902392,100.411652 100.411652,93.2902392 104.819971,84.5131195 C106.820542,80.570108 108.229021,76.3537588 109,72 C88.7228816,72.3751322 72.3751322,88.7228816 72,109 L72,109 Z" id="Path" fill="#BDDBFF"></path>
                    <path d="M122.8905,73.4916048 C121.296373,72.8712785 119.659073,72.3681974 117.991662,71.9863753 C115.145507,71.3359297 112.235598,71.0054668 109.316067,71.0011342 C109.06944,70.9965853 108.822751,71.0057219 108.577136,71.028502 C107.794725,75.4468181 106.365361,79.7256871 104.335126,83.7271654 C99.861441,92.6344318 92.6344318,99.861441 83.7271654,104.335126 C79.7256871,106.365361 75.4468181,107.794725 71.028502,108.577136 C71.0057219,108.822751 70.9965853,109.06944 71.0011342,109.316067 C71.0054668,112.235598 71.3359297,115.145507 71.9863753,117.991662 C72.3681974,119.659073 72.8712785,121.296373 73.4916048,122.8905 C74.4768459,122.972604 75.4620871,123 76.474696,123 C78.5160112,123.002272 80.555099,122.865113 82.5777174,122.589454 C103.435495,119.849096 119.849096,103.435495 122.589454,82.5777174 C122.865113,80.555099 123.002272,78.5160112 123,76.474696 C123,75.4620871 122.972604,74.4768459 122.8905,73.4916048 L122.8905,73.4916048 Z" id="Path" fill="#BDDBFF"></path>
                    <path d="M130.257028,77.4955823 C128.062505,76.0933473 125.728797,74.9219172 123.293173,74 C123.3751,74.9831325 123.40241,75.9662651 123.40241,76.9767068 C123.404705,79.0136533 123.26784,81.048377 122.992771,83.0666667 C120.258278,103.879805 103.879805,120.258278 83.0666667,122.992771 C81.048377,123.26784 79.0136533,123.404705 76.9767068,123.40241 C75.9662651,123.40241 74.9831325,123.3751 74,123.293173 C74.9162891,125.731262 76.0880073,128.065545 77.4955823,130.257028 C80.5022342,134.984464 84.5111179,138.993348 89.2385542,142 C99.2752909,134.573114 108.716588,126.373612 117.476305,117.476305 C126.373612,108.716588 134.573114,99.2752909 142,89.2385542 C138.993348,84.5111179 134.984464,80.5022342 130.257028,77.4955823 L130.257028,77.4955823 Z" id="Path" fill="#BDDBFF"></path>
                    <circle id="Oval" fill="#BDDBFF" cx="9.5" cy="126.5" r="5.5"></circle>
                    <circle id="Oval" fill="#BDDBFF" cx="107.5" cy="31.5" r="5.5"></circle>
                    <path d="M28,9 C25.4138859,8.99119149 22.85395,9.51796531 20.4814727,10.5472452 C16.0172107,12.4600658 12.4600658,16.0172107 10.5472452,20.4814727 C9.51796531,22.85395 8.99119149,25.4138859 9,28 C9,38.4933487 17.5066513,47 28,47 C30.5861141,47.0088085 33.14605,46.4820347 35.5185273,45.4527548 C39.9827893,43.5399342 43.5399342,39.9827893 45.4527548,35.5185273 C46.4820347,33.14605 47.0088085,30.5861141 47,28 C47,17.5066513 38.4933487,9 28,9 L28,9 Z" id="Path" fill="#BDDBFF"></path>
                    <g id="Group" fill="#3D9AE2">
                        <path d="M159.94,60.06 C154.483457,54.6007407 144.167901,49.8041975 117.90642,70.0822222 C115.303036,69.5576047 112.655618,69.2820404 110,69.2592593 C87.5100584,69.2847046 69.2847046,87.5100584 69.2592593,110 C69.2790356,112.654478 69.5518753,115.301022 70.0740741,117.903704 C49.7933333,144.165185 54.5925926,154.478025 60.0491358,159.94 C62.9547713,163.037173 67.0309602,164.766644 71.277284,164.703951 C77.9180247,164.703951 87.5735802,161.14321 102.096296,149.920494 C104.698723,150.445041 107.345319,150.719705 110,150.740741 C132.489942,150.715295 150.715295,132.489942 150.740741,110 C150.721948,107.34457 150.4491,104.69703 149.925926,102.09358 C170.195802,75.8348148 165.407407,65.5219753 159.94,60.06 L159.94,60.06 Z M142.033086,84.8901235 C140.010757,82.3128093 137.686397,79.9875381 135.109877,77.9641975 C143.277037,72.4723457 147.196296,71.4674074 148.356049,71.6439506 C148.5,72.7683951 147.522222,76.7120988 142.033086,84.8901235 Z M128.941728,80.2158025 C132.770606,82.6791696 136.090123,85.8557631 138.719506,89.5725926 C131.703066,98.8401803 124.032361,107.593734 115.766173,115.766173 C107.593823,124.032455 98.8402625,131.703167 89.5725926,138.719506 C85.8535864,136.090915 82.6750712,132.771317 80.2103704,128.941728 C79.6508642,128.06716 79.1375309,127.165432 78.6567901,126.244691 C104.646459,125.556023 125.551093,104.646616 126.233827,78.6567901 C127.157284,79.1375309 128.064444,79.6535802 128.941728,80.2158025 L128.941728,80.2158025 Z M111.439506,74.7837037 C113.640458,74.8592727 115.830207,75.1319687 117.982469,75.5985185 C118.949383,75.8266667 119.883704,76.0955556 120.828889,76.397037 C120.828889,76.7365432 120.864198,77.0651852 120.864198,77.4101235 C120.834265,101.397797 101.395083,120.835765 77.4074074,120.864198 C77.0624691,120.864198 76.7338272,120.834321 76.394321,120.826173 C76.0955556,119.902716 75.8293827,118.965679 75.6039506,118.012346 C75.1296503,115.850879 74.851484,113.651002 74.7728395,111.439506 C93.0040171,107.23981 107.23981,93.0040171 111.439506,74.7728395 L111.439506,74.7837037 Z M77.9641975,135.109877 C79.9889332,137.685965 82.3140346,140.011067 84.8901235,142.035802 C76.7175309,147.519506 72.7874074,148.494568 71.6439506,148.356049 C71.5,147.231605 72.4777778,143.287901 77.9641975,135.109877 L77.9641975,135.109877 Z M105.83358,74.962963 C101.824076,90.0441085 90.0444612,101.822687 74.962963,105.830864 C76.9104791,89.657109 89.6596538,76.909056 105.83358,74.962963 L105.83358,74.962963 Z M63.9004938,156.099506 C61.6869136,153.885926 55.2091358,147.383704 71.9454321,124.446667 C72.7081893,126.455735 73.6309882,128.400334 74.7049383,130.261728 C64.077037,145.458025 65.5980247,150.105185 67.7464198,152.261728 C68.8003605,153.324212 70.2549606,153.890657 71.7498765,153.820741 C75.1422222,153.820741 80.8785185,151.702222 91.188642,144.290123 C101.284416,136.811351 110.785528,128.561557 119.606667,119.614815 C128.553904,110.794919 136.802888,101.293695 144.279259,91.1967901 C156.058765,74.8135802 154.469877,69.9708642 152.25358,67.7545679 C150.099753,65.6007407 145.463457,64.0879012 130.25358,74.7130864 C128.391548,73.6385583 126.445999,72.7157397 124.435802,71.9535802 C147.380988,55.217284 153.877778,61.6923457 156.091358,63.908642 C158.432593,66.2525926 165.562222,73.3849383 144.903951,99.717037 C138.217336,108.040282 131.053012,115.968195 123.44716,123.460741 C115.956235,131.06629 108.030147,138.230603 99.7088889,144.917531 C73.3740741,165.57037 66.2444444,158.440741 63.9004938,156.099506 L63.9004938,156.099506 Z M110,145.308642 C109.320988,145.308642 108.641975,145.229877 107.943951,145.191852 C113.919259,140.156296 120.405185,134.180988 127.293086,127.293086 C134.180988,120.405185 140.150864,113.938272 145.189136,107.943951 C145.229877,108.631111 145.308642,109.320988 145.308642,110 C145.286191,129.491117 129.491117,145.286191 110,145.308642 L110,145.308642 Z" id="Shape"></path>
                        <path d="M6.79012346,28.5185185 C6.77330389,35.548275 10.1664825,42.1496862 15.8926762,46.2274875 C21.61887,50.3052888 28.9669611,51.3530709 35.6046914,49.0382716 C42.5604938,54.1987654 47.9274074,56.8333333 51.6022222,56.8306173 C53.0127263,56.8973973 54.3883442,56.3795755 55.4046914,55.3992593 C58.5851852,52.2187654 56.4041975,45.542716 49.0382716,35.6182716 C51.7869799,27.760049 49.7918062,19.0219015 43.9047918,13.1354661 C38.0177774,7.24903068 29.2794337,5.25471633 21.4214815,8.00419753 C11.497037,0.635555556 4.81555556,-1.54271605 1.62962963,1.62962963 C-1.5562963,4.80197531 0.638271605,11.4997531 8.00419753,21.4214815 C7.20460603,23.7023969 6.79419428,26.1015152 6.79012346,28.5185185 Z M12.2222222,28.5185185 C12.2222222,27.9753086 12.2520988,27.4320988 12.3037037,26.8888889 C14.8893827,29.9716049 17.762963,33.1358025 20.8402469,36.2022222 C23.9175309,39.268642 27.0708642,42.1558025 30.1508642,44.7387654 C29.6076543,44.7903704 29.0644444,44.8202469 28.5212346,44.8202469 C19.5215826,44.8127567 12.2282129,37.5181716 12.2222222,28.5185185 L12.2222222,28.5185185 Z M51.4283951,51.4283951 C50.2496296,51.3767901 46.9469136,50.3419753 41.031358,46.2516049 C43.0548947,44.8201607 44.8201607,43.0548947 46.2516049,41.031358 C50.3446914,46.9441975 51.3767901,50.2469136 51.4283951,51.4283951 Z M44.8148148,28.5185185 C44.8113731,34.4565992 41.5782816,39.9227819 36.3760494,42.7859259 C32.2765142,39.5416727 28.3713355,36.0591166 24.6807407,32.3562963 C20.9772946,28.6653386 17.4947076,24.7592183 14.2511111,20.6582716 C17.8421605,14.1519557 25.3801237,10.8992224 32.5774601,12.7502036 C39.7747965,14.6011848 44.8082448,21.0869817 44.8148148,28.5185185 L44.8148148,28.5185185 Z M5.60864198,5.60864198 C6.78740741,5.66024691 10.0901235,6.69506173 16.005679,10.7854321 C13.9821423,12.2168763 12.2168763,13.9821423 10.7854321,16.005679 C6.69234568,10.0928395 5.66024691,6.79012346 5.60864198,5.60864198 L5.60864198,5.60864198 Z" id="Shape"></path>
                        <path d="M99.1358025,31.2345679 C99.1358025,35.7346659 102.783853,39.382716 107.283951,39.382716 C111.784049,39.382716 115.432099,35.7346659 115.432099,31.2345679 C115.432099,26.7344699 111.784049,23.0864198 107.283951,23.0864198 C102.783853,23.0864198 99.1358025,26.7344699 99.1358025,31.2345679 Z M107.283951,28.5185185 C108.783983,28.5185185 110,29.7345352 110,31.2345679 C110,32.7346006 108.783983,33.9506173 107.283951,33.9506173 C105.783918,33.9506173 104.567901,32.7346006 104.567901,31.2345679 C104.567901,29.7345352 105.783918,28.5185185 107.283951,28.5185185 Z" id="Shape"></path>
                        <path d="M9.50617284,118.148148 C5.00607488,118.148148 1.35802469,121.796198 1.35802469,126.296296 C1.35802469,130.796394 5.00607488,134.444444 9.50617284,134.444444 C14.0062708,134.444444 17.654321,130.796394 17.654321,126.296296 C17.654321,121.796198 14.0062708,118.148148 9.50617284,118.148148 Z M9.50617284,129.012346 C8.00614019,129.012346 6.79012346,127.796329 6.79012346,126.296296 C6.79012346,124.796264 8.00614019,123.580247 9.50617284,123.580247 C11.0062055,123.580247 12.2222222,124.796264 12.2222222,126.296296 C12.2222222,127.796329 11.0062055,129.012346 9.50617284,129.012346 Z" id="Shape"></path>
                        <polygon id="Path" points="148.024691 17.654321 153.45679 17.654321 153.45679 12.2222222 158.888889 12.2222222 158.888889 6.79012346 153.45679 6.79012346 153.45679 1.35802469 148.024691 1.35802469 148.024691 6.79012346 142.592593 6.79012346 142.592593 12.2222222 148.024691 12.2222222"></polygon>
                        <polygon id="Path" points="158.888889 137.160494 164.320988 137.160494 164.320988 142.592593 158.888889 142.592593"></polygon>
                        <polygon id="Path" points="139.876543 158.888889 145.308642 158.888889 145.308642 164.320988 139.876543 164.320988"></polygon>
                        <polygon id="Path" points="156.17284 104.567901 161.604938 104.567901 161.604938 110 156.17284 110"></polygon>
                        <polygon id="Path" points="17.654321 74.691358 12.2222222 74.691358 12.2222222 80.1234568 6.79012346 80.1234568 6.79012346 85.5555556 12.2222222 85.5555556 12.2222222 90.9876543 17.654321 90.9876543 17.654321 85.5555556 23.0864198 85.5555556 23.0864198 80.1234568 17.654321 80.1234568"></polygon>
                        <polygon id="Path" points="36.6666667 96.4197531 42.0987654 96.4197531 42.0987654 101.851852 36.6666667 101.851852"></polygon>
                        <polygon id="Path" points="66.5432099 20.3703704 71.9753086 20.3703704 71.9753086 25.8024691 66.5432099 25.8024691"></polygon>
                        <polygon id="Path" points="77.4074074 52.962963 82.8395062 52.962963 82.8395062 58.3950617 77.4074074 58.3950617"></polygon>
                        <polygon id="Path" points="96.4197531 4.07407407 101.851852 4.07407407 101.851852 9.50617284 96.4197531 9.50617284"></polygon>
                        <polygon id="Path" points="47.5308642 77.4074074 52.962963 77.4074074 52.962963 82.8395062 47.5308642 82.8395062"></polygon>
                        <polygon id="Path" points="25.8024691 150.740741 31.2345679 150.740741 31.2345679 156.17284 25.8024691 156.17284"></polygon>
                    </g>
                </g>
                <g id="024-ciencia-ficcion-1" transform="translate(0.000000, 46.000000)">
                    <polygon id="Path" fill="#BDDBFF" points="228 219 210.545455 245 53.4545455 245 36 219"></polygon>
                    <path d="M131.5,205.8 C136.318208,205.8 140.224138,201.860106 140.224138,197 C140.224138,192.139894 136.318208,188.2 131.5,188.2 C126.681792,188.2 122.775862,192.139894 122.775862,197 C122.790234,201.854088 126.687757,205.785503 131.5,205.8 L131.5,205.8 Z M188.206897,205.8 C193.025105,205.8 196.931034,201.860106 196.931034,197 C196.931034,192.139894 193.025105,188.2 188.206897,188.2 C183.388688,188.2 179.482759,192.139894 179.482759,197 C179.497131,201.854088 183.394654,205.785503 188.206897,205.8 L188.206897,205.8 Z M227.465517,219 L5,219 L5,201.4 C5,186.819683 16.7177888,175 31.1724138,175 L231.827586,175 C246.282211,175 258,186.819683 258,201.4 L258,219 L227.465517,219 Z M74.7931034,205.8 C79.6113118,205.8 83.5172414,201.860106 83.5172414,197 C83.5172414,192.139894 79.6113118,188.2 74.7931034,188.2 C69.9748951,188.2 66.0689655,192.139894 66.0689655,197 C66.0833377,201.854088 69.9808608,205.785503 74.7931034,205.8 L74.7931034,205.8 Z" id="Shape" fill="#BDDBFF"></path>
                    <polygon id="Path" fill="#BDDBFF" points="228 149 228 175 36 175 36 149 105.818182 149 158.181818 149"></polygon>
                    <polygon id="Path" fill="#BDDBFF" points="158 139.333333 158 148 105 148 105 139.333333 113.833333 122 149.166667 122"></polygon>
                    <path d="M157,76.5 L157,96 L144,96 L144,76.5 C144,72.9101491 146.910149,70 150.5,70 C154.089851,70 157,72.9101491 157,76.5 Z" id="Path" fill="#BDDBFF"></path>
                    <path d="M114.5,123 L105.75,123 C100.923492,122.985723 97.0144148,119.113875 97,114.333333 L97,105.666667 C97.0144148,100.886125 100.923492,97.0142775 105.75,97 L158.25,97 C163.076508,97.0142775 166.985585,100.886125 167,105.666667 L167,114.333333 C166.985585,119.113875 163.076508,122.985723 158.25,123 L114.5,123 Z" id="Path" fill="#BDDBFF"></path>
                    <path d="M118,76.5 L118,96 L105,96 L105,76.5 C105,72.9101491 107.910149,70 111.5,70 C115.089851,70 118,72.9101491 118,76.5 Z" id="Path" fill="#BDDBFF"></path>
                    <g id="Group" fill="#3D9AE2">
                        <polygon id="Path" points="109.166667 104.842105 117.9 104.842105 117.9 113.578947 109.166667 113.578947"></polygon>
                        <polygon id="Path" points="144.1 104.842105 152.833333 104.842105 152.833333 113.578947 144.1 113.578947"></polygon>
                        <path d="M231.433333,170.368421 L231.433333,131.052632 C231.433333,75.562548 186.467798,30.5789474 131,30.5789474 C75.5322016,30.5789474 30.5666667,75.562548 30.5666667,131.052632 L30.5666667,170.368421 C13.6931433,170.38768 0.0192510437,184.067066 1.33226763e-15,200.947368 L1.33226763e-15,218.421053 C1.33226763e-15,220.833665 1.95502326,222.789474 4.36666667,222.789474 L32.5971667,222.789474 L48.7538333,247.056053 C49.5665287,248.274649 50.9356782,249.004609 52.4,249.000022 L209.6,249.000022 C211.059683,249.000022 212.422943,248.270778 213.233067,247.056053 L229.402833,222.789474 L257.633333,222.789474 C260.044977,222.789474 262,220.833665 262,218.421053 L262,200.947368 C261.980749,184.067066 248.306857,170.38768 231.433333,170.368421 L231.433333,170.368421 Z M131,39.3157895 C181.62057,39.3735658 222.642247,80.4117237 222.7,131.052632 L222.7,144.157895 L161.566667,144.157895 L161.566667,139.789474 C161.57409,139.113547 161.424613,138.445119 161.13,137.836789 L155.531933,126.684211 L157.2,126.684211 C164.43493,126.684211 170.3,120.816784 170.3,113.578947 L170.3,104.842105 C170.277069,99.3082531 166.781999,94.3852173 161.566667,92.5406316 L161.566667,76.4473684 C161.566667,70.4158376 156.679109,65.5263158 150.65,65.5263158 C144.620891,65.5263158 139.733333,70.4158376 139.733333,76.4473684 L139.733333,91.7368421 L122.266667,91.7368421 L122.266667,76.4473684 C122.266667,70.4158376 117.379109,65.5263158 111.35,65.5263158 C105.320891,65.5263158 100.433333,70.4158376 100.433333,76.4473684 L100.433333,92.5406316 C95.2180012,94.3852173 91.7229311,99.3082531 91.7,104.842105 L91.7,113.578947 C91.7,120.816784 97.5650698,126.684211 104.8,126.684211 L106.468067,126.684211 L100.891833,137.836789 C100.589672,138.443296 100.432701,139.111812 100.433333,139.789474 L100.433333,144.157895 L39.3,144.157895 L39.3,131.052632 C39.3577531,80.4117237 80.3794299,39.3735658 131,39.3157895 L131,39.3157895 Z M113.533333,91.7368421 L109.166667,91.7368421 L109.166667,76.4473684 C109.166667,75.2410623 110.144178,74.2631579 111.35,74.2631579 C112.555822,74.2631579 113.533333,75.2410623 113.533333,76.4473684 L113.533333,91.7368421 Z M104.8,100.473684 L157.2,100.473684 C159.611643,100.473684 161.566667,102.429493 161.566667,104.842105 L161.566667,113.578947 C161.566667,115.99156 159.611643,117.947368 157.2,117.947368 L104.8,117.947368 C102.388357,117.947368 100.433333,115.99156 100.433333,113.578947 L100.433333,104.842105 C100.433333,102.429493 102.388357,100.473684 104.8,100.473684 Z M152.833333,91.7368421 L148.466667,91.7368421 L148.466667,76.4473684 C148.466667,75.2410623 149.444178,74.2631579 150.65,74.2631579 C151.855822,74.2631579 152.833333,75.2410623 152.833333,76.4473684 L152.833333,91.7368421 Z M116.231933,126.684211 L145.768067,126.684211 L152.833333,140.820421 L152.833333,144.157895 L109.166667,144.157895 L109.166667,140.820421 L116.231933,126.684211 Z M39.3,152.894737 L222.7,152.894737 L222.7,170.368421 L39.3,170.368421 L39.3,152.894737 Z M207.263833,240.263158 L54.7361667,240.263158 L43.0902667,222.789474 L218.909733,222.789474 L207.263833,240.263158 Z M253.266667,214.052632 L8.73333333,214.052632 L8.73333333,200.947368 C8.74777004,188.890294 18.5144346,179.119706 30.5666667,179.105263 L231.433333,179.105263 C243.485565,179.119706 253.25223,188.890294 253.266667,200.947368 L253.266667,214.052632 Z" id="Shape"></path>
                        <path d="M131,183.473684 C123.76507,183.473684 117.9,189.34111 117.9,196.578947 C117.9,203.816784 123.76507,209.684211 131,209.684211 C138.23493,209.684211 144.1,203.816784 144.1,196.578947 C144.1,189.34111 138.23493,183.473684 131,183.473684 Z M131,200.947368 C128.588357,200.947368 126.633333,198.99156 126.633333,196.578947 C126.633333,194.166335 128.588357,192.210526 131,192.210526 C133.411643,192.210526 135.366667,194.166335 135.366667,196.578947 C135.366667,198.99156 133.411643,200.947368 131,200.947368 Z" id="Shape"></path>
                        <path d="M187.766667,183.473684 C180.531736,183.473684 174.666667,189.34111 174.666667,196.578947 C174.666667,203.816784 180.531736,209.684211 187.766667,209.684211 C195.001597,209.684211 200.866667,203.816784 200.866667,196.578947 C200.866667,189.34111 195.001597,183.473684 187.766667,183.473684 Z M187.766667,200.947368 C185.355023,200.947368 183.4,198.99156 183.4,196.578947 C183.4,194.166335 185.355023,192.210526 187.766667,192.210526 C190.17831,192.210526 192.133333,194.166335 192.133333,196.578947 C192.133333,198.99156 190.17831,200.947368 187.766667,200.947368 Z" id="Shape"></path>
                        <path d="M74.2333333,183.473684 C66.9984031,183.473684 61.1333333,189.34111 61.1333333,196.578947 C61.1333333,203.816784 66.9984031,209.684211 74.2333333,209.684211 C81.4682636,209.684211 87.3333333,203.816784 87.3333333,196.578947 C87.3333333,189.34111 81.4682636,183.473684 74.2333333,183.473684 Z M74.2333333,200.947368 C71.8216899,200.947368 69.8666667,198.99156 69.8666667,196.578947 C69.8666667,194.166335 71.8216899,192.210526 74.2333333,192.210526 C76.6449767,192.210526 78.6,194.166335 78.6,196.578947 C78.6,198.99156 76.6449767,200.947368 74.2333333,200.947368 Z" id="Shape"></path>
                        <polygon id="Path" points="240.166667 39.3157895 248.9 39.3157895 248.9 30.5789474 257.633333 30.5789474 257.633333 21.8421053 248.9 21.8421053 248.9 13.1052632 240.166667 13.1052632 240.166667 21.8421053 231.433333 21.8421053 231.433333 30.5789474 240.166667 30.5789474"></polygon>
                        <polygon id="Path" points="8.73333333 74.2631579 17.4666667 74.2631579 17.4666667 65.5263158 26.2 65.5263158 26.2 56.7894737 17.4666667 56.7894737 17.4666667 48.0526316 8.73333333 48.0526316 8.73333333 56.7894737 0 56.7894737 0 65.5263158 8.73333333 65.5263158"></polygon>
                        <polygon id="Path" points="48.0333333 0 56.7666667 0 56.7666667 8.73684211 48.0333333 8.73684211"></polygon>
                        <polygon id="Path" points="165.933333 8.73684211 174.666667 8.73684211 174.666667 17.4736842 165.933333 17.4736842"></polygon>
                        <polygon id="Path" points="65.5 26.2105263 74.2333333 26.2105263 74.2333333 34.9473684 65.5 34.9473684"></polygon>
                        <polygon id="Path" points="240.166667 48.0526316 248.9 48.0526316 248.9 56.7894737 240.166667 56.7894737"></polygon>
                        <polygon id="Path" points="240.166667 65.5263158 248.9 65.5263158 248.9 74.2631579 240.166667 74.2631579"></polygon>
                        <polygon id="Path" points="240.166667 83 248.9 83 248.9 91.7368421 240.166667 91.7368421"></polygon>
                        <polygon id="Path" points="8.73333333 83 17.4666667 83 17.4666667 91.7368421 8.73333333 91.7368421"></polygon>
                        <polygon id="Path" points="8.73333333 100.473684 17.4666667 100.473684 17.4666667 109.210526 8.73333333 109.210526"></polygon>
                        <polygon id="Path" points="109.166667 8.73684211 117.9 8.73684211 117.9 17.4736842 109.166667 17.4736842"></polygon>
                        <polygon id="Path" points="8.73333333 117.947368 17.4666667 117.947368 17.4666667 126.684211 8.73333333 126.684211"></polygon>
                    </g>
                </g>
            </g>
        </g>
    </g>
</svg>