<?xml version="1.0" encoding="UTF-8"?>
<svg width="468px" height="312px" viewBox="0 0 468 312" version="1.1" xmlns="http://www.w3.org/2000/svg" xmlns:xlink="http://www.w3.org/1999/xlink">
    <!-- Generator: Sketch 57.1 (83088) - https://sketch.com -->
    <title>Group 8</title>
    <desc>Created with Sketch.</desc>
    <g id="Home" stroke="none" stroke-width="1" fill="none" fill-rule="evenodd">
        <g id="Group-8" fill-rule="nonzero">
            <g id="027-diverso-copy" transform="translate(303.000000, 0.000000)">
                <path d="M110.49272,148 C107.634731,147.995759 104.78616,147.672262 102,147.035527 C110.296133,140.377159 118.19512,133.238549 125.656377,125.656377 C133.238549,118.19512 140.377159,110.296133 147.035527,102 C147.672262,104.78616 147.995759,107.634731 148,110.49272 C148,131.207419 131.207419,148 110.49272,148 L110.49272,148 Z" id="Path" fill="#BDDBFF"></path>
                <path d="M72,109 C76.3537588,108.229021 80.570108,106.820542 84.5131195,104.819971 C93.2902392,100.411652 100.411652,93.2902392 104.819971,84.5131195 C106.820542,80.570108 108.229021,76.3537588 109,72 C88.7228816,72.3751322 72.3751322,88.7228816 72,109 L72,109 Z" id="Path" fill="#BDDBFF"></path>
                <path d="M122.8905,73.4916048 C121.296373,72.8712785 119.659073,72.3681974 117.991662,71.9863753 C115.145507,71.3359297 112.235598,71.0054668 109.316067,71.0011342 C109.06944,70.9965853 108.822751,71.0057219 108.577136,71.028502 C107.794725,75.4468181 106.365361,79.7256871 104.335126,83.7271654 C99.861441,92.6344318 92.6344318,99.861441 83.7271654,104.335126 C79.7256871,106.365361 75.4468181,107.794725 71.028502,108.577136 C71.0057219,108.822751 70.9965853,109.06944 71.0011342,109.316067 C71.0054668,112.235598 71.3359297,115.145507 71.9863753,117.991662 C72.3681974,119.659073 72.8712785,121.296373 73.4916048,122.8905 C74.4768459,122.972604 75.4620871,123 76.474696,123 C78.5160112,123.002272 80.555099,122.865113 82.5777174,122.589454 C103.435495,119.849096 119.849096,103.435495 122.589454,82.5777174 C122.865113,80.555099 123.002272,78.5160112 123,76.474696 C123,75.4620871 122.972604,74.4768459 122.8905,73.4916048 L122.8905,73.4916048 Z" id="Path" fill="#BDDBFF"></path>
                <path d="M130.257028,77.4955823 C128.062505,76.0933473 125.728797,74.9219172 123.293173,74 C123.3751,74.9831325 123.40241,75.9662651 123.40241,76.9767068 C123.404705,79.0136533 123.26784,81.048377 122.992771,83.0666667 C120.258278,103.879805 103.879805,120.258278 83.0666667,122.992771 C81.048377,123.26784 79.0136533,123.404705 76.9767068,123.40241 C75.9662651,123.40241 74.9831325,123.3751 74,123.293173 C74.9162891,125.731262 76.0880073,128.065545 77.4955823,130.257028 C80.5022342,134.984464 84.5111179,138.993348 89.2385542,142 C99.2752909,134.573114 108.716588,126.373612 117.476305,117.476305 C126.373612,108.716588 134.573114,99.2752909 142,89.2385542 C138.993348,84.5111179 134.984464,80.5022342 130.257028,77.4955823 L130.257028,77.4955823 Z" id="Path" fill="#BDDBFF"></path>
                <circle id="Oval" fill="#BDDBFF" cx="9.5" cy="126.5" r="5.5"></circle>
                <circle id="Oval" fill="#BDDBFF" cx="107.5" cy="31.5" r="5.5"></circle>
                <path d="M28,9 C25.4138859,8.99119149 22.85395,9.51796531 20.4814727,10.5472452 C16.0172107,12.4600658 12.4600658,16.0172107 10.5472452,20.4814727 C9.51796531,22.85395 8.99119149,25.4138859 9,28 C9,38.4933487 17.5066513,47 28,47 C30.5861141,47.0088085 33.14605,46.4820347 35.5185273,45.4527548 C39.9827893,43.5399342 43.5399342,39.9827893 45.4527548,35.5185273 C46.4820347,33.14605 47.0088085,30.5861141 47,28 C47,17.5066513 38.4933487,9 28,9 L28,9 Z" id="Path" fill="#BDDBFF"></path>
                <g id="Group" fill="#3D9AE2">
                    <path d="M159.94,60.06 C154.483457,54.6007407 144.167901,49.8041975 117.90642,70.0822222 C115.303036,69.5576047 112.655618,69.2820404 110,69.2592593 C87.5100584,69.2847046 69.2847046,87.5100584 69.2592593,110 C69.2790356,112.654478 69.5518753,115.301022 70.0740741,117.903704 C49.7933333,144.165185 54.5925926,154.478025 60.0491358,159.94 C62.9547713,163.037173 67.0309602,164.766644 71.277284,164.703951 C77.9180247,164.703951 87.5735802,161.14321 102.096296,149.920494 C104.698723,150.445041 107.345319,150.719705 110,150.740741 C132.489942,150.715295 150.715295,132.489942 150.740741,110 C150.721948,107.34457 150.4491,104.69703 149.925926,102.09358 C170.195802,75.8348148 165.407407,65.5219753 159.94,60.06 L159.94,60.06 Z M142.033086,84.8901235 C140.010757,82.3128093 137.686397,79.9875381 135.109877,77.9641975 C143.277037,72.4723457 147.196296,71.4674074 148.356049,71.6439506 C148.5,72.7683951 147.522222,76.7120988 142.033086,84.8901235 Z M128.941728,80.2158025 C132.770606,82.6791696 136.090123,85.8557631 138.719506,89.5725926 C131.703066,98.8401803 124.032361,107.593734 115.766173,115.766173 C107.593823,124.032455 98.8402625,131.703167 89.5725926,138.719506 C85.8535864,136.090915 82.6750712,132.771317 80.2103704,128.941728 C79.6508642,128.06716 79.1375309,127.165432 78.6567901,126.244691 C104.646459,125.556023 125.551093,104.646616 126.233827,78.6567901 C127.157284,79.1375309 128.064444,79.6535802 128.941728,80.2158025 L128.941728,80.2158025 Z M111.439506,74.7837037 C113.640458,74.8592727 115.830207,75.1319687 117.982469,75.5985185 C118.949383,75.8266667 119.883704,76.0955556 120.828889,76.397037 C120.828889,76.7365432 120.864198,77.0651852 120.864198,77.4101235 C120.834265,101.397797 101.395083,120.835765 77.4074074,120.864198 C77.0624691,120.864198 76.7338272,120.834321 76.394321,120.826173 C76.0955556,119.902716 75.8293827,118.965679 75.6039506,118.012346 C75.1296503,115.850879 74.851484,113.651002 74.7728395,111.439506 C93.0040171,107.23981 107.23981,93.0040171 111.439506,74.7728395 L111.439506,74.7837037 Z M77.9641975,135.109877 C79.9889332,137.685965 82.3140346,140.011067 84.8901235,142.035802 C76.7175309,147.519506 72.7874074,148.494568 71.6439506,148.356049 C71.5,147.231605 72.4777778,143.287901 77.9641975,135.109877 L77.9641975,135.109877 Z M105.83358,74.962963 C101.824076,90.0441085 90.0444612,101.822687 74.962963,105.830864 C76.9104791,89.657109 89.6596538,76.909056 105.83358,74.962963 L105.83358,74.962963 Z M63.9004938,156.099506 C61.6869136,153.885926 55.2091358,147.383704 71.9454321,124.446667 C72.7081893,126.455735 73.6309882,128.400334 74.7049383,130.261728 C64.077037,145.458025 65.5980247,150.105185 67.7464198,152.261728 C68.8003605,153.324212 70.2549606,153.890657 71.7498765,153.820741 C75.1422222,153.820741 80.8785185,151.702222 91.188642,144.290123 C101.284416,136.811351 110.785528,128.561557 119.606667,119.614815 C128.553904,110.794919 136.802888,101.293695 144.279259,91.1967901 C156.058765,74.8135802 154.469877,69.9708642 152.25358,67.7545679 C150.099753,65.6007407 145.463457,64.0879012 130.25358,74.7130864 C128.391548,73.6385583 126.445999,72.7157397 124.435802,71.9535802 C147.380988,55.217284 153.877778,61.6923457 156.091358,63.908642 C158.432593,66.2525926 165.562222,73.3849383 144.903951,99.717037 C138.217336,108.040282 131.053012,115.968195 123.44716,123.460741 C115.956235,131.06629 108.030147,138.230603 99.7088889,144.917531 C73.3740741,165.57037 66.2444444,158.440741 63.9004938,156.099506 L63.9004938,156.099506 Z M110,145.308642 C109.320988,145.308642 108.641975,145.229877 107.943951,145.191852 C113.919259,140.156296 120.405185,134.180988 127.293086,127.293086 C134.180988,120.405185 140.150864,113.938272 145.189136,107.943951 C145.229877,108.631111 145.308642,109.320988 145.308642,110 C145.286191,129.491117 129.491117,145.286191 110,145.308642 L110,145.308642 Z" id="Shape"></path>
                    <path d="M6.79012346,28.5185185 C6.77330389,35.548275 10.1664825,42.1496862 15.8926762,46.2274875 C21.61887,50.3052888 28.9669611,51.3530709 35.6046914,49.0382716 C42.5604938,54.1987654 47.9274074,56.8333333 51.6022222,56.8306173 C53.0127263,56.8973973 54.3883442,56.3795755 55.4046914,55.3992593 C58.5851852,52.2187654 56.4041975,45.542716 49.0382716,35.6182716 C51.7869799,27.760049 49.7918062,19.0219015 43.9047918,13.1354661 C38.0177774,7.24903068 29.2794337,5.25471633 21.4214815,8.00419753 C11.497037,0.635555556 4.81555556,-1.54271605 1.62962963,1.62962963 C-1.5562963,4.80197531 0.638271605,11.4997531 8.00419753,21.4214815 C7.20460603,23.7023969 6.79419428,26.1015152 6.79012346,28.5185185 Z M12.2222222,28.5185185 C12.2222222,27.9753086 12.2520988,27.4320988 12.3037037,26.8888889 C14.8893827,29.9716049 17.762963,33.1358025 20.8402469,36.2022222 C23.9175309,39.268642 27.0708642,42.1558025 30.1508642,44.7387654 C29.6076543,44.7903704 29.0644444,44.8202469 28.5212346,44.8202469 C19.5215826,44.8127567 12.2282129,37.5181716 12.2222222,28.5185185 L12.2222222,28.5185185 Z M51.4283951,51.4283951 C50.2496296,51.3767901 46.9469136,50.3419753 41.031358,46.2516049 C43.0548947,44.8201607 44.8201607,43.0548947 46.2516049,41.031358 C50.3446914,46.9441975 51.3767901,50.2469136 51.4283951,51.4283951 Z M44.8148148,28.5185185 C44.8113731,34.4565992 41.5782816,39.9227819 36.3760494,42.7859259 C32.2765142,39.5416727 28.3713355,36.0591166 24.6807407,32.3562963 C20.9772946,28.6653386 17.4947076,24.7592183 14.2511111,20.6582716 C17.8421605,14.1519557 25.3801237,10.8992224 32.5774601,12.7502036 C39.7747965,14.6011848 44.8082448,21.0869817 44.8148148,28.5185185 L44.8148148,28.5185185 Z M5.60864198,5.60864198 C6.78740741,5.66024691 10.0901235,6.69506173 16.005679,10.7854321 C13.9821423,12.2168763 12.2168763,13.9821423 10.7854321,16.005679 C6.69234568,10.0928395 5.66024691,6.79012346 5.60864198,5.60864198 L5.60864198,5.60864198 Z" id="Shape"></path>
                    <path d="M99.1358025,31.2345679 C99.1358025,35.7346659 102.783853,39.382716 107.283951,39.382716 C111.784049,39.382716 115.432099,35.7346659 115.432099,31.2345679 C115.432099,26.7344699 111.784049,23.0864198 107.283951,23.0864198 C102.783853,23.0864198 99.1358025,26.7344699 99.1358025,31.2345679 Z M107.283951,28.5185185 C108.783983,28.5185185 110,29.7345352 110,31.2345679 C110,32.7346006 108.783983,33.9506173 107.283951,33.9506173 C105.783918,33.9506173 104.567901,32.7346006 104.567901,31.2345679 C104.567901,29.7345352 105.783918,28.5185185 107.283951,28.5185185 Z" id="Shape"></path>
                    <path d="M9.50617284,118.148148 C5.00607488,118.148148 1.35802469,121.796198 1.35802469,126.296296 C1.35802469,130.796394 5.00607488,134.444444 9.50617284,134.444444 C14.0062708,134.444444 17.654321,130.796394 17.654321,126.296296 C17.654321,121.796198 14.0062708,118.148148 9.50617284,118.148148 Z M9.50617284,129.012346 C8.00614019,129.012346 6.79012346,127.796329 6.79012346,126.296296 C6.79012346,124.796264 8.00614019,123.580247 9.50617284,123.580247 C11.0062055,123.580247 12.2222222,124.796264 12.2222222,126.296296 C12.2222222,127.796329 11.0062055,129.012346 9.50617284,129.012346 Z" id="Shape"></path>
                    <polygon id="Path" points="148.024691 17.654321 153.45679 17.654321 153.45679 12.2222222 158.888889 12.2222222 158.888889 6.79012346 153.45679 6.79012346 153.45679 1.35802469 148.024691 1.35802469 148.024691 6.79012346 142.592593 6.79012346 142.592593 12.2222222 148.024691 12.2222222"></polygon>
                    <polygon id="Path" points="158.888889 137.160494 164.320988 137.160494 164.320988 142.592593 158.888889 142.592593"></polygon>
                    <polygon id="Path" points="139.876543 158.888889 145.308642 158.888889 145.308642 164.320988 139.876543 164.320988"></polygon>
                    <polygon id="Path" points="156.17284 104.567901 161.604938 104.567901 161.604938 110 156.17284 110"></polygon>
                    <polygon id="Path" points="17.654321 74.691358 12.2222222 74.691358 12.2222222 80.1234568 6.79012346 80.1234568 6.79012346 85.5555556 12.2222222 85.5555556 12.2222222 90.9876543 17.654321 90.9876543 17.654321 85.5555556 23.0864198 85.5555556 23.0864198 80.1234568 17.654321 80.1234568"></polygon>
                    <polygon id="Path" points="36.6666667 96.4197531 42.0987654 96.4197531 42.0987654 101.851852 36.6666667 101.851852"></polygon>
                    <polygon id="Path" points="66.5432099 20.3703704 71.9753086 20.3703704 71.9753086 25.8024691 66.5432099 25.8024691"></polygon>
                    <polygon id="Path" points="77.4074074 52.962963 82.8395062 52.962963 82.8395062 58.3950617 77.4074074 58.3950617"></polygon>
                    <polygon id="Path" points="96.4197531 4.07407407 101.851852 4.07407407 101.851852 9.50617284 96.4197531 9.50617284"></polygon>
                    <polygon id="Path" points="47.5308642 77.4074074 52.962963 77.4074074 52.962963 82.8395062 47.5308642 82.8395062"></polygon>
                    <polygon id="Path" points="25.8024691 150.740741 31.2345679 150.740741 31.2345679 156.17284 25.8024691 156.17284"></polygon>
                </g>
            </g>
            <g id="026-envio-y-entrega-copy" transform="translate(0.000000, 43.000000)">
                <polygon id="Path" fill="#BDDBFF" points="166.5 193 189 238 157.5 238 157.5 211 112.5 211 112.5 238 81 238 103.5 193 108 193 126 193 144 193 162 193"></polygon>
                <path d="M189,237 L189,255 C188.985173,259.964408 184.964408,263.985173 180,264 L90,264 C85.0355916,263.985173 81.0148266,259.964408 81,255 L81,237 L189,237 Z" id="Path" fill="#BDDBFF"></path>
                <polygon id="Path" fill="#BDDBFF" points="126 175 144 175 144 193 126 193"></polygon>
                <polygon id="Path" fill="#BDDBFF" points="126 175 126 193 108 193 108 175 117 175"></polygon>
                <polygon id="Path" fill="#BDDBFF" points="152 175 161 175 161 193 143 193 143 175"></polygon>
                <path d="M170.3,76 C160.414103,76 152.4,84.0588745 152.4,94 C152.4,84.0588745 144.385897,76 134.5,76 C124.614103,76 116.6,84.0588745 116.6,94 C116.6,84.0588745 108.585897,76 98.7,76 C88.814103,76 80.8,84.0588745 80.8,94 C80.8,84.0588745 72.785897,76 62.9,76 C53.014103,76 45,84.0588745 45,94 C45,44.2943725 85.0705149,4 134.5,4 C183.929485,4 224,44.2943725 224,94 C224,84.0588745 215.985897,76 206.1,76 C196.214103,76 188.2,84.0588745 188.2,94 C188.2,84.0588745 180.185897,76 170.3,76 Z" id="Path" fill="#BDDBFF"></path>
                <g id="Group" fill="#3D9AE2">
                    <path d="M134.5,-1.77635684e-15 C82.5269719,0.0592961538 40.4092962,42.1769719 40.3499982,94.15 C40.3499982,95.1467351 40.6803942,96.1153461 41.2915,96.9027667 L103.116667,176.392267 L103.116667,188.3 C101.417367,188.299208 99.8636702,189.259202 99.1040833,190.779283 L76.6874167,235.612617 C76.3771826,236.235078 76.2160178,236.921179 76.2166667,237.616667 L76.2166667,255.55 C76.2166667,262.97823 82.2384368,269 89.6666667,269 L179.333333,269 C186.761563,269 192.783333,262.97823 192.783333,255.55 L192.783333,237.616667 C192.790955,236.92296 192.637484,236.236949 192.335,235.612617 L169.918333,190.779283 C169.155154,189.251949 167.590702,188.29068 165.883333,188.3 L165.883333,176.392267 L227.7085,96.9027667 C228.319606,96.1153461 228.650002,95.1467351 228.650002,94.15 C228.590704,42.1769719 186.473028,0.0592961538 134.5,-1.77635684e-15 Z M134.5,8.96666667 C174.060453,9.0339367 208.379692,36.3010996 217.387867,74.82235 C207.594736,69.0051332 194.98176,71.6140442 188.3,80.8389833 C184.117999,75.1154869 177.455217,71.7319429 170.366667,71.7319429 C163.278116,71.7319429 156.615335,75.1154869 152.433333,80.8389833 C148.250183,75.1172322 141.587819,71.7350574 134.5,71.7350574 C127.412181,71.7350574 120.749817,75.1172322 116.566667,80.8389833 C112.382369,75.1189762 105.720422,71.7381691 98.6333333,71.7381691 C91.5462444,71.7381691 84.8842977,75.1189762 80.7,80.8389833 C73.9894115,71.6363081 61.3818809,69.0445228 51.5852333,74.8537333 C60.5832611,36.3102437 94.9201856,9.02488399 134.5,8.96666667 L134.5,8.96666667 Z M130.016667,188.3 L130.016667,179.333333 L138.983333,179.333333 L138.983333,188.3 L130.016667,188.3 Z M119.480833,170.366667 L85.2640333,93.3743833 C85.637983,86.0900827 91.7620638,80.4384801 99.0529085,80.649332 C106.343753,80.860184 112.130982,86.8562627 112.083333,94.15 C112.083231,94.3147583 112.092212,94.4793969 112.110233,94.6431667 L120.52545,170.366667 L119.480833,170.366667 Z M139.431667,170.366667 L129.568333,170.366667 L121.04989,94.0244667 C121.020287,86.5962369 127.01797,80.5503799 134.4462,80.520557 C141.87443,80.490954 147.920287,86.4886369 147.95,93.9168667 L139.431667,170.366667 Z M148.452133,170.366667 L156.86735,94.6431667 C156.89287,94.4798129 156.909334,94.3151725 156.916667,94.15 C156.890833,86.8778732 162.649921,80.902214 169.918049,80.6597006 C177.186177,80.4171872 183.330789,85.9956591 183.789767,93.2533333 L149.519167,170.366667 L148.452133,170.366667 Z M62.7666667,80.7 C70.1948966,80.7 76.2166667,86.7217701 76.2166667,94.15 C76.2164875,94.777031 76.3478379,95.397127 76.6022333,95.9702333 L109.500933,169.990067 L49.3928833,92.71085 C50.1281404,85.8787379 55.895105,80.7 62.7666667,80.7 L62.7666667,80.7 Z M112.083333,179.333333 L121.05,179.333333 L121.05,188.3 L112.083333,188.3 L112.083333,179.333333 Z M179.333333,260.033333 L89.6666667,260.033333 C87.19059,260.033333 85.1833333,258.026077 85.1833333,255.55 L85.1833333,242.1 L183.816667,242.1 L183.816667,255.55 C183.816667,258.026077 181.80941,260.033333 179.333333,260.033333 Z M152.433333,233.133333 L116.566667,233.133333 L116.566667,215.2 L152.433333,215.2 L152.433333,233.133333 Z M181.045967,233.133333 L161.4,233.133333 L161.4,210.716667 C161.4,208.24059 159.392743,206.233333 156.916667,206.233333 L112.083333,206.233333 C109.607257,206.233333 107.6,208.24059 107.6,210.716667 L107.6,233.133333 L87.9540333,233.133333 L105.887367,197.266667 L163.112633,197.266667 L181.045967,233.133333 Z M147.95,188.3 L147.95,179.333333 L156.916667,179.333333 L156.916667,188.3 L147.95,188.3 Z M159.499067,169.990067 L192.397767,95.9702333 C192.652162,95.397127 192.783512,94.777031 192.783333,94.15 C192.778362,86.998163 198.371179,81.0931275 205.512747,80.709968 C212.654314,80.3268085 218.846841,85.5995366 219.607117,92.71085 L159.499067,169.990067 Z" id="Shape"></path>
                    <polygon id="Path" points="233.133333 152.433333 242.1 152.433333 242.1 215.2 233.133333 215.2"></polygon>
                    <polygon id="Path" points="233.133333 134.5 242.1 134.5 242.1 143.466667 233.133333 143.466667"></polygon>
                    <polygon id="Path" points="233.133333 116.566667 242.1 116.566667 242.1 125.533333 233.133333 125.533333"></polygon>
                    <polygon id="Path" points="260.033333 98.6333333 269 98.6333333 269 188.3 260.033333 188.3"></polygon>
                    <polygon id="Path" points="260.033333 80.7 269 80.7 269 89.6666667 260.033333 89.6666667"></polygon>
                    <polygon id="Path" points="260.033333 62.7666667 269 62.7666667 269 71.7333333 260.033333 71.7333333"></polygon>
                    <polygon id="Path" points="260.033333 44.8333333 269 44.8333333 269 53.8 260.033333 53.8"></polygon>
                    <polygon id="Path" points="26.9 152.433333 35.8666667 152.433333 35.8666667 215.2 26.9 215.2"></polygon>
                    <polygon id="Path" points="26.9 134.5 35.8666667 134.5 35.8666667 143.466667 26.9 143.466667"></polygon>
                    <polygon id="Path" points="26.9 116.566667 35.8666667 116.566667 35.8666667 125.533333 26.9 125.533333"></polygon>
                    <polygon id="Path" points="0 98.6333333 8.96666667 98.6333333 8.96666667 188.3 0 188.3"></polygon>
                    <polygon id="Path" points="0 80.7 8.96666667 80.7 8.96666667 89.6666667 0 89.6666667"></polygon>
                    <polygon id="Path" points="0 62.7666667 8.96666667 62.7666667 8.96666667 71.7333333 0 71.7333333"></polygon>
                    <polygon id="Path" points="0 44.8333333 8.96666667 44.8333333 8.96666667 53.8 0 53.8"></polygon>
                </g>
            </g>
        </g>
    </g>
</svg>